PathFileType	4	(X/Y/Z)	./resultDataOpenSim/trcMotMarkerGrf/sub06/qtm-01-01.trc
DataRate	CameraRate	NumFrames	NumMarkers	Units	OrigDataRate	OrigDataStartFrame	OrigNumFrames
250.000000	250.000000	11	24	m	250.000000	414	472
Frame#	Time	L.Toe.Tip			R.Toe.Tip			L.Ankle.Lat			R.Ankle.Lat			L.Ankle.Med			R.Ankle.Med			L.Heel			R.Heel			L.Knee.Lat			R.Knee.Lat			L.Knee.Med			R.Knee.Med			L.Thigh.Upper			R.Thigh.Upper			L.ASIS			R.ASIS			V.Sacral			L.Acromium			R.Acromium			C7			L.Elbow			R.Elbow			L.Wrist.Lat			R.Wrist.Lat
		X1	Y1	Z1	X2	Y2	Z2	X3	Y3	Z3	X4	Y4	Z4	X5	Y5	Z5	X6	Y6	Z6	X7	Y7	Z7	X8	Y8	Z8	X9	Y9	Z9	X10	Y10	Z10	X11	Y11	Z11	X12	Y12	Z12	X13	Y13	Z13	X14	Y14	Z14	X15	Y15	Z15	X16	Y16	Z16	X17	Y17	Z17	X18	Y18	Z18	X19	Y19	Z19	X20	Y20	Z20	X21	Y21	Z21	X22	Y22	Z22	X23	Y23	Z23	X24	Y24	Z24

414	1.652	1.6321793	0.03368234	-0.0019111289	1.106722	0.083572126	0.16422534	1.5076199	0.066546611	-0.026983808	1.0864245	0.2233172	0.17272127	1.5058522	0.080571031	0.060232051	1.1323657	0.20577747	0.096803583	1.4313705	0.040350965	0.014982331	1.062613	0.25617197	0.10089739	1.5791247	0.43411259	-0.045816097	1.4222101	0.40174064	0.22912427	1.5477332	0.43255376	0.071791518	1.429694	0.37895964	0.094048282	1.4590524	0.81340845	-0.11610251	1.3997082	0.75827672	0.2153723	1.5157239	0.85406803	-0.0574635	1.4835418	0.82891465	0.1860544	1.3104319	0.91132581	0.051834644	1.4127037	1.313184	-0.13079748	1.4045706	1.3182461	0.23141318	1.3316825	1.353734	0.047264239	1.3105891	1.017559	-0.18209773	1.3814168	0.99497821	0.31111492	1.3965766	0.79290636	-0.2327799	1.6101453	0.9018397	0.27675251
415	1.656	1.6321565	0.033678665	-0.0019237934	1.1222505	0.083762071	0.16668154	1.5076113	0.066522621	-0.026757998	1.0996958	0.22325422	0.17313886	1.506967	0.08082481	0.060065688	1.1461815	0.20564997	0.097531691	1.4313592	0.040461194	0.014985846	1.0754814	0.25503786	0.10104178	1.5804378	0.43409568	-0.045591218	1.433712	0.40429571	0.23004597	1.5488044	0.43268217	0.071975508	1.4415586	0.38124194	0.094972782	1.4634456	0.81416501	-0.1163731	1.4082353	0.75992332	0.21542657	1.521082	0.85510652	-0.058043373	1.489686	0.83091629	0.18592666	1.3163632	0.9131732	0.051735015	1.4189954	1.315133	-0.13056982	1.4100652	1.3200312	0.23170367	1.3377216	1.3554846	0.047335394	1.3193484	1.0182373	-0.18226072	1.3854688	0.99683196	0.31067616	1.4086617	0.79450928	-0.23129756	1.6117889	0.89896178	0.27782093
416	1.66	1.6321327	0.033678865	-0.0019250939	1.1379902	0.083784575	0.16908631	1.5075902	0.066542872	-0.0266036	1.1128889	0.22289134	0.17360785	1.5079357	0.081031523	0.059920944	1.1601286	0.20531017	0.098333909	1.4313552	0.040587203	0.015052927	1.0885411	0.25364046	0.10113851	1.5816837	0.43410009	-0.045317878	1.4451675	0.40696386	0.23089225	1.5498415	0.43281656	0.072204143	1.4537652	0.38351865	0.095887774	1.4678251	0.81492331	-0.11660944	1.4163166	0.76172398	0.21555382	1.5263878	0.85620134	-0.058652064	1.4957998	0.83291596	0.18577476	1.3221969	0.91503071	0.051664833	1.4252447	1.3171229	-0.13031423	1.4156323	1.3217948	0.23198302	1.3437556	1.3572659	0.047438832	1.3281152	1.0189753	-0.18242704	1.3890304	0.99877724	0.3102358	1.4207979	0.79623249	-0.22976649	1.6132874	0.89613575	0.27892332
417	1.664	1.6321166	0.033681912	-0.0019169181	1.1540774	0.083684321	0.17138952	1.507555	0.066624972	-0.026546722	1.1261412	0.2222555	0.17411523	1.5083914	0.081167977	0.059894739	1.1742181	0.20477091	0.09918358	1.4313546	0.040731839	0.015153021	1.1017938	0.25199187	0.10117883	1.582867	0.43411049	-0.045010885	1.4566382	0.40971305	0.2316511	1.5507863	0.43293584	0.072457609	1.4662491	0.38579888	0.09674706	1.4722622	0.81569632	-0.11680229	1.4239836	0.76366401	0.21575328	1.5316484	0.85735006	-0.059266442	1.5018892	0.83490995	0.18558454	1.3278619	0.91689532	0.051619042	1.4314541	1.3191508	-0.13003988	1.4212618	1.3235411	0.23224539	1.3497885	1.3590682	0.047560615	1.3368954	1.0197711	-0.18259293	1.3922718	1.0007817	0.30982987	1.4329927	0.79807355	-0.2281935	1.6146363	0.89336546	0.28007136
418	1.668	1.6321118	0.033685341	-0.0019043951	1.1705263	0.083478545	0.17358033	1.5075044	0.066767642	-0.026586647	1.1396444	0.22139042	0.17466971	1.5084984	0.081273779	0.059956215	1.1884292	0.2040561	0.10005189	1.4313429	0.040889952	0.01524859	1.1151576	0.25009255	0.10126902	1.5839874	0.43412026	-0.044685826	1.4681801	0.41251812	0.23230741	1.5515485	0.43301566	0.072709453	1.4787285	0.38813994	0.097543121	1.47679	0.81648918	-0.11695017	1.4312881	0.76572669	0.21601833	1.536881	0.85854629	-0.059877828	1.5079721	0.83690469	0.18534171	1.3333942	0.91876175	0.051593287	1.4376312	1.3212184	-0.12975084	1.4269328	1.3252764	0.23248899	1.3558258	1.3608725	0.047695598	1.3456934	1.0206216	-0.18275018	1.3954172	1.0028112	0.30944905	1.4452464	0.800028	-0.22658672	1.6158411	0.8906634	0.28126489
419	1.672	1.6321163	0.03368744	-0.0018941845	1.1872677	0.083162443	0.17567719	1.5074468	0.066957463	-0.02669237	1.1534761	0.22031014	0.17529128	1.508498	0.081388525	0.060043287	1.2027318	0.20318318	0.10091624	1.4313118	0.041055796	0.015336282	1.1285152	0.24793253	0.10157266	1.5850437	0.43413102	-0.044355252	1.479767	0.41536974	0.23285645	1.5520814	0.43304596	0.0729442	1.4909765	0.39058777	0.098288841	1.4813624	0.81730403	-0.11704754	1.4382718	0.76789745	0.21634253	1.542094	0.8597838	-0.060489311	1.5140749	0.83891363	0.18504079	1.3389637	0.92060554	0.051584215	1.4437896	1.3233271	-0.12944883	1.4326394	1.3270032	0.23271679	1.361866	1.3626608	0.04785393	1.3545041	1.0215221	-0.18288897	1.398623	1.0048576	0.30906104	1.4575447	0.80209266	-0.22494874	1.6169039	0.88803931	0.28249163
420	1.676	1.6321275	0.033687768	-0.0018921086	1.2042497	0.082733151	0.17769241	1.5074031	0.067164905	-0.026787243	1.1675682	0.21899568	0.17598125	1.5085116	0.081530623	0.060119631	1.2171252	0.20215423	0.10179028	1.4312779	0.041233498	0.015426961	1.1417875	0.24549759	0.10219977	1.5860356	0.43414674	-0.044027709	1.4912605	0.41827111	0.23332388	1.5524661	0.43304497	0.073173135	1.5029845	0.39313827	0.098976644	1.4859116	0.81813905	-0.11708331	1.444964	0.77016365	0.21672105	1.5472885	0.86105774	-0.061095504	1.5202144	0.84094896	0.18468664	1.3447514	0.92238313	0.051591431	1.4499388	1.3254682	-0.12913596	1.4383891	1.3287188	0.23293133	1.3679038	1.3644249	0.048048539	1.363316	1.0224651	-0.1830043	1.4019199	1.0069314	0.30864243	1.4698588	0.80426674	-0.22327414	1.6178276	0.88549347	0.28373528
421	1.68	1.6321455	0.033686812	-0.0019010052	1.2214836	0.082204219	0.17961122	1.5073866	0.067357188	-0.026802806	1.1818314	0.21743332	0.17671353	1.5085744	0.081703311	0.060179182	1.2316467	0.20096064	0.1027412	1.4312712	0.041433148	0.015529753	1.1550001	0.24277794	0.10309739	1.5869643	0.43417145	-0.04370756	1.5025426	0.42122231	0.23375748	1.5528973	0.43305073	0.073427386	1.5148762	0.39576379	0.099585857	1.4904631	0.81898288	-0.11706052	1.4513887	0.77251342	0.21715009	1.552468	0.86236296	-0.061676228	1.526383	0.84301621	0.18428891	1.3507873	0.9240707	0.051613325	1.4560771	1.3276169	-0.12881271	1.4441758	1.3304132	0.23313012	1.3739343	1.3661653	0.048281582	1.3721204	1.0234401	-0.18309709	1.4051885	1.0090357	0.30818561	1.4821623	0.80655124	-0.22155767	1.6186176	0.88302277	0.28498704
422	1.684	1.6321706	0.033685828	-0.0019197789	1.2390145	0.081601902	0.18139921	1.507388	0.067526909	-0.026741419	1.1962535	0.21563898	0.17745328	1.5086849	0.081903503	0.060233278	1.2463424	0.1995886	0.10384606	1.4313043	0.041656662	0.015667199	1.1683414	0.23979146	0.10396244	1.5878409	0.4342089	-0.043396287	1.5136507	0.42420503	0.23419318	1.5535576	0.43309627	0.073731987	1.5266707	0.39846189	0.10012937	1.4951129	0.81982503	-0.11699889	1.4575693	0.77493492	0.21762615	1.5576333	0.86369151	-0.062210232	1.5325621	0.84511367	0.18385958	1.3569175	0.92570259	0.051637214	1.4621998	1.3297472	-0.12847704	1.4499734	1.3320697	0.23330633	1.3799507	1.367881	0.048547022	1.3809135	1.0244379	-0.18317239	1.408308	1.011157	0.30770581	1.4944704	0.80894666	-0.21980466	1.6192809	0.88062516	0.2862512
423	1.688	1.6322011	0.033686296	-0.0019437273	1.2568244	0.080938365	0.18304169	1.5073969	0.067696329	-0.026643341	1.2108556	0.21363606	0.17818053	1.5088344	0.08212725	0.060293957	1.2612044	0.19803796	0.10506339	1.4313647	0.041898254	0.015859702	1.1820732	0.23659635	0.10438973	1.5886977	0.43426302	-0.043093775	1.5246893	0.42719139	0.23463106	1.554468	0.43319181	0.074083189	1.5382734	0.40126899	0.10064778	1.499888	0.82067445	-0.11691528	1.46353	0.77741614	0.21814566	1.5627832	0.86503396	-0.062684873	1.5387505	0.84723434	0.18341384	1.3629462	0.9273402	0.051645233	1.4683095	1.331851	-0.12812805	1.4557691	1.3336744	0.2334592	1.3859466	1.3695595	0.04883562	1.3896948	1.0254527	-0.18323774	1.4114171	1.0132821	0.3072527	1.5068643	0.81144877	-0.21802482	1.6198276	0.87829977	0.28753898
424	1.692	1.6322357	0.033689274	-0.0019666412	1.2747703	0.080187905	0.18458509	1.5074152	0.067890343	-0.026533022	1.2255972	0.21142253	0.17890401	1.5090198	0.082366164	0.060363956	1.2761215	0.19635128	0.10615592	1.4314334	0.042155945	0.016087287	1.1962247	0.23323424	0.10434946	1.5895878	0.43433621	-0.042795701	1.5356781	0.43016473	0.23503606	1.5554751	0.43332705	0.074450614	1.5498006	0.40424257	0.10115287	1.5046873	0.82155389	-0.11681727	1.4692957	0.77994496	0.21870497	1.5679424	0.86638288	-0.063101248	1.544966	0.84937162	0.18296834	1.3687948	0.92900574	0.051652025	1.4744132	1.3339383	-0.12777019	1.4615928	1.3352286	0.23360822	1.3919234	1.3711851	0.049131316	1.3984669	1.0264812	-0.18330105	1.4148192	1.0154119	0.30687773	1.5194529	0.81404899	-0.21621383	1.6202683	0.87604943	0.2888573
